{
  "accessors": [
    {
      "bufferView": 2,
      "componentType": 5126,
      "count": 5484,
      "max": [
        5.0937819480895996,
        2.501629114151001,
        17.760438919067383
      ],
      "min": [
        3.6612107753753662,
        0.40000307559967041,
        15.530025482177734
      ],
      "type": "VEC3"
    },
    {
      "bufferView": 2,
      "byteOffset": 65808,
      "componentType": 5126,
      "count": 5484,
      "max": [
        0.99951738119125366,
        0.99848723411560059,
        0.99997949600219727
      ],
      "min": [
        -0.99951475858688354,
        -0.99985206127166748,
        -0.99999606609344482
      ],
      "type": "VEC3"
    },
    {
      "bufferView": 3,
      "componentType": 5126,
      "count": 5484,
      "max": [
        0.99999850988388062,
        0.9998619556427002,
        0.99972838163375854,
        1
      ],
      "min": [
        -1,
        -0.99993586540222168,
        -0.99968266487121582,
        -1
      ],
      "type": "VEC4"
    },
    {
      "bufferView": 1,
      "componentType": 5126,
      "count": 5484,
      "max": [
        0.99000000953674316,
        0.99000000953674316
      ],
      "min": [
        0.0099999997764825821,
        0.10899999737739563
      ],
      "type": "VEC2"
    },
    {
      "bufferView": 0,
      "componentType": 5125,
      "count": 26880,
      "max": [
        5483
      ],
      "min": [
        0
      ],
      "type": "SCALAR"
    },
    {
      "bufferView": 2,
      "byteOffset": 131616,
      "componentType": 5126,
      "count": 8905,
      "max": [
        5.8388066291809082,
        2.465857982635498,
        16.208478927612305
      ],
      "min": [
        2.9174537658691406,
        0.14791500568389893,
        8.4550104141235352
      ],
      "type": "VEC3"
    },
    {
      "bufferView": 2,
      "byteOffset": 238476,
      "componentType": 5126,
      "count": 8905,
      "max": [
        0.99998736381530762,
        0.99993360042572021,
        0.99949735403060913
      ],
      "min": [
        -0.99998736381530762,
        -0.999961256980896,
        -0.99997603893280029
      ],
      "type": "VEC3"
    },
    {
      "bufferView": 3,
      "byteOffset": 87744,
      "componentType": 5126,
      "count": 8905,
      "max": [
        0.99998968839645386,
        0.9999653697013855,
        0.99977242946624756,
        1
      ],
      "min": [
        -0.99999994039535522,
        -0.99999362230300903,
        -0.99992471933364868,
        -1
      ],
      "type": "VEC4"
    },
    {
      "bufferView": 1,
      "byteOffset": 43872,
      "componentType": 5126,
      "count": 8905,
      "max": [
        0.97269999980926514,
        0.99000000953674316
      ],
      "min": [
        0.0099999997764825821,
        0.0099999997764825821
      ],
      "type": "VEC2"
    },
    {
      "bufferView": 0,
      "byteOffset": 107520,
      "componentType": 5125,
      "count": 39336,
      "max": [
        8904
      ],
      "min": [
        0
      ],
      "type": "SCALAR"
    },
    {
      "bufferView": 2,
      "byteOffset": 345336,
      "componentType": 5126,
      "count": 7418,
      "max": [
        8.7549915313720703,
        2.81109619140625,
        14.765875816345215
      ],
      "min": [
        0,
        0,
        0
      ],
      "type": "VEC3"
    },
    {
      "bufferView": 2,
      "byteOffset": 434352,
      "componentType": 5126,
      "count": 7418,
      "max": [
        0.99976235628128052,
        0.9999159574508667,
        0.9981234073638916
      ],
      "min": [
        -0.99939465522766113,
        -0.99963122606277466,
        -0.99991607666015625
      ],
      "type": "VEC3"
    },
    {
      "bufferView": 3,
      "byteOffset": 230224,
      "componentType": 5126,
      "count": 7418,
      "max": [
        0.99977517127990723,
        0.99991291761398315,
        0.99985647201538086,
        1
      ],
      "min": [
        -0.99956315755844116,
        -0.99977248907089233,
        -0.99997377395629883,
        -1
      ],
      "type": "VEC4"
    },
    {
      "bufferView": 1,
      "byteOffset": 115112,
      "componentType": 5126,
      "count": 7418,
      "max": [
        0.9878000020980835,
        0.99000000953674316
      ],
      "min": [
        0.0099999997764825821,
        0.0099999997764825821
      ],
      "type": "VEC2"
    },
    {
      "bufferView": 0,
      "byteOffset": 264864,
      "componentType": 5125,
      "count": 33312,
      "max": [
        7417
      ],
      "min": [
        0
      ],
      "type": "SCALAR"
    }
  ],
  "asset": {
    "extras": {
      "author": "graft (https://sketchfab.com/graft)",
      "license": "CC-BY-4.0 (http://creativecommons.org/licenses/by/4.0/)",
      "source": "https://sketchfab.com/models/ef853171dc334d3b8cdf93504a1f7e00",
      "title": "Skeleton"
    },
    "generator": "Sketchfab-3.19.6",
    "version": "2.0"
  },
  "bufferViews": [
    {
      "buffer": 0,
      "byteLength": 398112,
      "byteOffset": 0,
      "name": "floatBufferViews",
      "target": 34963
    },
    {
      "buffer": 0,
      "byteLength": 174456,
      "byteOffset": 398112,
      "byteStride": 8,
      "name": "floatBufferViews",
      "target": 34962
    },
    {
      "buffer": 0,
      "byteLength": 523368,
      "byteOffset": 572568,
      "byteStride": 12,
      "name": "floatBufferViews",
      "target": 34962
    },
    {
      "buffer": 0,
      "byteLength": 348912,
      "byteOffset": 1095936,
      "byteStride": 16,
      "name": "floatBufferViews",
      "target": 34962
    }
  ],
  "buffers": [
    {
      "byteLength": 1444848,
      "uri": "scene.bin"
    }
  ],
  "images": [
    {
      "uri": "textures/lambert2SG_metallicRoughness.png"
    },
    {
      "uri": "textures/lambert2SG_normal.jpeg"
    },
    {
      "uri": "textures/lambert2SG_baseColor.jpeg"
    },
    {
      "uri": "textures/lambert5SG_metallicRoughness.png"
    },
    {
      "uri": "textures/lambert5SG_normal.jpeg"
    },
    {
      "uri": "textures/lambert5SG_baseColor.jpeg"
    },
    {
      "uri": "textures/lambert6SG.001_metallicRoughness.png"
    },
    {
      "uri": "textures/lambert6SG.001_normal.jpeg"
    },
    {
      "uri": "textures/lambert6SG.001_baseColor.jpeg"
    }
  ],
  "materials": [
    {
      "doubleSided": true,
      "emissiveFactor": [
        0,
        0,
        0
      ],
      "name": "lambert2SG",
      "normalTexture": {
        "index": 1,
        "scale": 1,
        "texCoord": 0
      },
      "occlusionTexture": {
        "index": 0,
        "strength": 0.76000000000000001,
        "texCoord": 0
      },
      "pbrMetallicRoughness": {
        "baseColorFactor": [
          1,
          1,
          1,
          1
        ],
        "baseColorTexture": {
          "index": 2,
          "texCoord": 0
        },
        "metallicFactor": 0,
        "metallicRoughnessTexture": {
          "index": 0,
          "texCoord": 0
        },
        "roughnessFactor": 1
      }
    },
    {
      "doubleSided": true,
      "emissiveFactor": [
        0,
        0,
        0
      ],
      "name": "lambert5SG",
      "normalTexture": {
        "index": 4,
        "scale": 1,
        "texCoord": 0
      },
      "occlusionTexture": {
        "index": 3,
        "strength": 0.37,
        "texCoord": 0
      },
      "pbrMetallicRoughness": {
        "baseColorFactor": [
          1,
          1,
          1,
          1
        ],
        "baseColorTexture": {
          "index": 5,
          "texCoord": 0
        },
        "metallicFactor": 0,
        "metallicRoughnessTexture": {
          "index": 3,
          "texCoord": 0
        },
        "roughnessFactor": 1
      }
    },
    {
      "doubleSided": true,
      "emissiveFactor": [
        0,
        0,
        0
      ],
      "name": "lambert6SG.001",
      "normalTexture": {
        "index": 7,
        "scale": 1,
        "texCoord": 0
      },
      "occlusionTexture": {
        "index": 6,
        "strength": 0.69999999999999996,
        "texCoord": 0
      },
      "pbrMetallicRoughness": {
        "baseColorFactor": [
          1,
          1,
          1,
          1
        ],
        "baseColorTexture": {
          "index": 8,
          "texCoord": 0
        },
        "metallicFactor": 0,
        "metallicRoughnessTexture": {
          "index": 6,
          "texCoord": 0
        },
        "roughnessFactor": 1
      }
    }
  ],
  "meshes": [
    {
      "primitives": [
        {
          "attributes": {
            "NORMAL": 1,
            "POSITION": 0,
            "TANGENT": 2,
            "TEXCOORD_0": 3
          },
          "indices": 4,
          "material": 0,
          "mode": 4
        }
      ]
    },
    {
      "primitives": [
        {
          "attributes": {
            "NORMAL": 6,
            "POSITION": 5,
            "TANGENT": 7,
            "TEXCOORD_0": 8
          },
          "indices": 9,
          "material": 1,
          "mode": 4
        }
      ]
    },
    {
      "primitives": [
        {
          "attributes": {
            "NORMAL": 11,
            "POSITION": 10,
            "TANGENT": 12,
            "TEXCOORD_0": 13
          },
          "indices": 14,
          "material": 2,
          "mode": 4
        }
      ]
    }
  ],
  "nodes": [
    {
      "children": [
        1
      ],
      "name": "RootNode (gltf orientation matrix)",
      "rotation": [
        -0.70710678118654746,
        -0,
        -0,
        0.70710678118654757
      ]
    },
    {
      "children": [
        2
      ],
      "name": "RootNode (model correction matrix)"
    },
    {
      "children": [
        3
      ],
      "matrix": [
        1,
        0,
        0,
        0,
        0,
        1,
        0,
        0,
        0,
        0,
        1,
        0,
        -4.3774957656860352,
        -1.5534080266952515,
        -16.678503036499023,
        1
      ],
      "name": "low_poly_caly.obj.cleaner.gles"
    },
    {
      "children": [
        4,
        5,
        6
      ],
      "name": ""
    },
    {
      "mesh": 0,
      "name": ""
    },
    {
      "mesh": 1,
      "name": ""
    },
    {
      "mesh": 2,
      "name": ""
    }
  ],
  "samplers": [
    {
      "magFilter": 9729,
      "minFilter": 9987,
      "wrapS": 10497,
      "wrapT": 10497
    }
  ],
  "scene": 0,
  "scenes": [
    {
      "name": "OSG_Scene",
      "nodes": [
        0
      ]
    }
  ],
  "textures": [
    {
      "sampler": 0,
      "source": 0
    },
    {
      "sampler": 0,
      "source": 1
    },
    {
      "sampler": 0,
      "source": 2
    },
    {
      "sampler": 0,
      "source": 3
    },
    {
      "sampler": 0,
      "source": 4
    },
    {
      "sampler": 0,
      "source": 5
    },
    {
      "sampler": 0,
      "source": 6
    },
    {
      "sampler": 0,
      "source": 7
    },
    {
      "sampler": 0,
      "source": 8
    }
  ]
}

